<svg xmlns="http://www.w3.org/2000/svg" width="24" height="24" viewBox="0 0 24 24" fill="#e6edf3"><path d="M12 .5A11.5 11.5 0 0 0 .5 12.3c0 5.2 3.4 9.6 8 11.1.6.1.8-.3.8-.6v-2.2c-3.3.7-4-1.5-4-1.5-.6-1.4-1.5-1.8-1.5-1.8-1.2-.9.1-.9.1-.9 1.3.1 2 1.4 2 1.4 1.2 2 3.1 1.4 3.9 1.1.1-.9.5-1.4.8-1.7-2.6-.3-5.3-1.3-5.3-6 0-1.3.5-2.4 1.3-3.2-.1-.3-.6-1.6.1-3.2 0 0 1-.3 3.2 1.2a10.8 10.8 0 0 1 5.8 0c2.2-1.5 3.2-1.2 3.2-1.2.7 1.6.2 2.9.1 3.2.8.8 1.3 1.9 1.3 3.2 0 4.7-2.7 5.7-5.3 6 .5.4.9 1.2.9 2.4v3.6c0 .3.2.7.8.6 4.7-1.5 8-5.9 8-11.1A11.5 11.5 0 0 0 12 .5z"/></svg>


