<svg xmlns="http://www.w3.org/2000/svg" width="24" height="24" fill="#6ea8fe" viewBox="0 0 24 24"><path d="M4.6 19.62l.86-3.16a8 8 0 1 1 3 2.75zm2.64-1.45 1.87 1.02a6.37 6.37 0 1 0-2.34-2.15zm7.94-3.56c-.13-.06-.75-.37-.86-.41s-.2-.06-.29.06-.33.4-.41.48-.15.09-.28 0a5.2 5.2 0 0 1-1.53-.94 5.72 5.72 0 0 1-1.06-1.32c-.11-.19 0-.29.08-.4s.19-.22.29-.34.13-.19.19-.32 0-.24-.01-.34-.29-.71-.4-.97-.22-.24-.29-.25H11c-.1 0-.25 0-.38.19a1.57 1.57 0 0 0-.48 1.18 2.76 2.76 0 0 0 .57 1.46 6.27 6.27 0 0 0 2.28 2.16 7.96 7.96 0 0 0 1.98.73c.79.17 1.5.05 2.07-.32a1.7 1.7 0 0 0 .75-1.09c.07-.19 0-.31-.12-.37z"/></svg>


