<svg xmlns="http://www.w3.org/2000/svg" width="24" height="24" viewBox="0 0 24 24" fill="#e6edf3"><path d="M20.45 20.45h-3.56v-5.59c0-1.33-.02-3.04-1.85-3.04-1.85 0-2.14 1.44-2.14 2.94v5.69H9.34V9.75h3.42v1.46h.05c.48-.9 1.66-1.85 3.41-1.85 3.65 0 4.33 2.4 4.33 5.51v5.58zM5.34 8.28c-1.14 0-2.06-.93-2.06-2.07s.92-2.06 2.06-2.06 2.06.92 2.06 2.06-.92 2.07-2.06 2.07zM7.12 20.45H3.57V9.75h3.55v10.7zM22.23 0H1.77C.79 0 0 .78 0 1.74v20.52C0 23.22.79 24 1.77 24h20.46c.98 0 1.77-.78 1.77-1.74V1.74C24 .78 23.21 0 22.23 0z"/></svg>


